<svg id="Capa_1" enable-background="new 0 0 512.002 512.002" height="512" viewBox="0 0 512.002 512.002" width="512" xmlns="http://www.w3.org/2000/svg"><g><g><g><g><circle cx="256.001" cy="256.001" fill="#eaf6ff" r="192.688"/><path d="m256.001 63.313c-7.143 0-14.191.401-21.132 1.158 96.475 10.525 171.556 92.254 171.556 191.53s-75.081 181.005-171.556 191.53c6.941.757 13.989 1.158 21.132 1.158 106.419 0 192.688-86.269 192.688-192.688s-86.269-192.688-192.688-192.688z" fill="#d8ecfe"/></g></g><path d="m443.475 502.908-67.624-36.662c-1.675-.908-3.755-.538-5.014.892l-14.657 16.642c-8.694 9.872-22.52 13.459-34.917 9.06l-6.396-2.27c-1.247-.443-2.229-1.424-2.671-2.671l-2.27-6.396c-4.399-12.397-.811-26.223 9.06-34.917l16.642-14.657c1.43-1.259 1.8-3.339.892-5.014l-36.662-67.624c-2.781-5.129-1.858-11.476 2.267-15.601l3.74-3.74c1.117-1.117 2.958-1.008 3.935.233l50.576 64.207c1.451 1.842 4.151 2.088 5.911.538l56.751-49.982c1.288-1.134 1.73-2.952 1.107-4.551l-12.794-32.827c-1.899-4.873-.738-10.408 2.961-14.106l4.683-4.683c.804-.804 2.149-.644 2.742.326l20.102 32.898c1.324 2.167 4.282 2.614 6.188.936 6.117-5.388 15.368-5.094 21.132.669 5.764 5.764 6.057 15.015.669 21.132-1.678 1.905-1.231 4.864.936 6.188l32.898 20.102c.971.593 1.131 1.938.326 2.742l-4.683 4.683c-3.698 3.698-9.233 4.86-14.106 2.961l-32.827-12.794c-1.599-.623-3.417-.181-4.551 1.107l-49.982 56.751c-1.55 1.76-1.304 4.46.538 5.911l64.207 50.576c1.24.977 1.349 2.818.233 3.935l-3.74 3.74c-4.126 4.124-10.473 5.046-15.602 2.266z" fill="#ffe179"/><g fill="#fbd268"><path d="m363.571 463.251c-7.73-4.135-17.29-2.397-23.069 4.194l-14.322 16.334c-2.744 3.116-6.001 5.602-9.562 7.412l4.645 1.648c12.397 4.399 26.223.811 34.917-9.06l14.657-16.642z"/><path d="m462.583 492.966-64.207-50.576c-1.842-1.451-2.088-4.151-.538-5.911l49.982-56.751-14.622-6.673c-4.126-1.883-8.998-.837-11.987 2.574l-43.395 49.522c-6.969 7.913-5.864 20.055 2.419 26.579l52.349 41.235c1.24.977 1.349 2.818.233 3.935l-.148.148 10.807 5.859c5.129 2.781 11.476 1.858 15.601-2.267l3.74-3.74c1.116-1.116 1.007-2.957-.234-3.934z"/><path d="m503.66 381.031-32.898-20.102c-2.167-1.324-2.614-4.282-.936-6.188 5.388-6.117 5.094-15.368-.669-21.132-5.764-5.764-15.015-6.057-21.132-.669-1.906 1.678-4.864 1.231-6.188-.936l-20.102-32.898c-.593-.971-1.938-1.131-2.742-.326l-4.683 4.683c-3.698 3.698-4.86 9.233-2.961 14.106l6.137 15.747c.183-.116.369-.227.538-.376 6.117-5.388 15.368-5.094 21.132.669 5.764 5.764 6.057 15.015.669 21.132-1.678 1.905-1.231 4.864.936 6.188l32.898 20.102c.971.593 1.131 1.938.326 2.742l-2.356 2.356 13.567 5.288c4.873 1.899 10.408.738 14.106-2.961l4.683-4.683c.806-.804.646-2.149-.325-2.742z"/></g><path d="m68.527 9.095 67.624 36.662c1.675.908 3.755.538 5.014-.892l14.657-16.642c8.694-9.872 22.52-13.459 34.917-9.06l6.396 2.27c1.247.443 2.229 1.424 2.671 2.671l2.27 6.396c4.399 12.397.811 26.223-9.06 34.917l-16.642 14.657c-1.43 1.259-1.8 3.339-.892 5.014l36.662 67.624c2.781 5.129 1.858 11.476-2.267 15.601l-3.74 3.74c-1.117 1.117-2.958 1.008-3.935-.233l-50.576-64.207c-1.451-1.842-4.151-2.088-5.911-.538l-56.751 49.982c-1.288 1.134-1.73 2.952-1.107 4.551l12.794 32.827c1.899 4.873.738 10.408-2.961 14.106l-4.683 4.683c-.804.804-2.149.644-2.742-.326l-20.102-32.898c-1.324-2.167-4.282-2.614-6.188-.936-6.117 5.388-15.368 5.094-21.132-.669-5.764-5.764-6.057-15.015-.669-21.132 1.678-1.905 1.231-4.864-.936-6.188l-32.896-20.103c-.971-.593-1.131-1.938-.326-2.742l4.683-4.683c3.698-3.698 9.233-4.86 14.106-2.961l32.827 12.794c1.599.623 3.417.181 4.551-1.107l49.982-56.751c1.55-1.76 1.304-4.46-.538-5.911l-64.208-50.574c-1.24-.977-1.349-2.818-.233-3.935l3.74-3.74c4.125-4.125 10.472-5.048 15.601-2.267z" fill="#75cef9"/><g fill="#5ea5ec"><path d="m212.144 152.712-36.662-67.624c-.908-1.675-.538-3.755.892-5.014l16.642-14.657c9.872-8.694 13.459-22.52 9.06-34.917l-2.27-6.396c-.443-1.247-1.424-2.229-2.671-2.671l-6.396-2.269c-8.484-3.01-17.635-2.277-25.355 1.648l1.751.621c1.247.443 2.229 1.424 2.671 2.671l2.27 6.396c4.399 12.397.811 26.223-9.06 34.917l-7.27 6.403c-6.914 6.089-8.702 16.147-4.311 24.246l19.656 36.255 31.113 39.498c.977 1.24 2.818 1.349 3.935.233l3.74-3.74c4.123-4.124 5.046-10.471 2.265-15.6z"/><path d="m87.858 161.607c-.623-1.599-.181-3.417 1.107-4.551l56.751-49.982c-9.688-7.018-22.948-6.377-31.914 1.542l-49.847 44.031c-3.923 3.465-5.578 10.291-3.677 15.168l4.237 10.871c1.888-1.189 4.444-.663 5.65 1.312l20.102 32.898c.593.971 1.938 1.131 2.742.326l4.683-4.683c3.698-3.698 4.86-9.233 2.961-14.106z"/></g></g><path d="m511.936 381.437c-.337-2.836-1.928-5.316-4.366-6.806l-29.734-18.168c5.398-8.874 4.199-20.58-3.376-28.157-7.576-7.575-19.283-8.774-28.156-3.375l-1.455-2.381c7.523-21.317 11.342-43.684 11.342-66.547 0-48.424-17.285-92.884-46.005-127.543-.412-.676-.917-1.27-1.496-1.769-36.75-43.327-91.558-70.878-152.688-70.878-17.274 0-34.176 2.169-50.554 6.437 6.308-10.077 7.832-22.604 3.697-34.256l-2.269-6.395c-1.203-3.393-3.838-6.028-7.232-7.233l-6.396-2.27c-15.373-5.455-32.271-1.069-43.053 11.172l-12.859 14.601-65.234-35.367c-7.987-4.331-18.055-2.869-24.479 3.557l-3.739 3.738c-2.047 2.046-3.123 4.877-2.952 7.767s1.573 5.574 3.846 7.364l61.375 48.344-46.021 52.254-30.604-11.928c-7.644-2.978-16.332-1.156-22.133 4.646l-4.683 4.683c-2.019 2.019-2.984 4.804-2.646 7.639.337 2.836 1.928 5.316 4.366 6.806l29.734 18.168c-5.398 8.874-4.199 20.58 3.376 28.157 7.577 7.575 19.284 8.775 28.156 3.375l1.455 2.381c-7.523 21.317-11.342 43.684-11.342 66.547 0 110.695 91.81 200.19 200.19 200.19 17.274 0 34.176-2.169 50.554-6.437-6.308 10.077-7.832 22.604-3.697 34.256l2.269 6.395c1.203 3.393 3.838 6.028 7.232 7.233l6.396 2.27c15.372 5.454 32.271 1.069 43.053-11.172l12.859-14.601 65.233 35.365c3.07 1.665 6.447 2.474 9.807 2.473 5.381 0 10.717-2.075 14.672-6.03l3.739-3.738c2.047-2.046 3.123-4.877 2.952-7.767s-1.573-5.574-3.846-7.364l-61.374-48.343 46.021-52.254 30.604 11.928c7.643 2.977 16.331 1.155 22.133-4.646l4.683-4.683c2.018-2.018 2.983-4.803 2.645-7.638zm-298.782-305.651c-7.081 7.077-13.722 15.967-19.793 26.544l-9.24-17.043c9.449-3.985 19.139-7.157 29.033-9.501zm-146.485 94.756c-2.798 0-5.515 1.013-7.649 2.893-3.138 2.764-7.914 2.613-10.871-.344-2.958-2.958-3.109-7.733-.344-10.872 2.268-2.576 3.274-5.999 2.761-9.392-.514-3.393-2.488-6.364-5.415-8.153l-26.638-16.276c1.566-1.229 3.683-1.558 5.568-.823l32.828 12.795c4.515 1.759 9.7.5 12.903-3.138l49.981-56.751c2.094-2.378 3.131-5.552 2.844-8.708-.288-3.156-1.88-6.09-4.369-8.051l-59.904-47.187c1.769-1.654 4.449-2.006 6.588-.847l67.626 36.663c4.778 2.59 10.624 1.549 14.216-2.529l14.656-16.642c6.706-7.614 17.219-10.342 26.78-6.949l5.002 1.775 1.775 5.002c3.394 9.562.666 20.074-6.949 26.78-1.702 1.499-17.418 15.232-18.428 16.644-2.531 3.541-2.898 8.252-.742 12.23l36.662 67.623c1.16 2.139.807 4.821-.847 6.589l-47.186-59.903c-1.961-2.489-4.896-4.082-8.051-4.369-3.156-.284-6.33.749-8.708 2.844l-31.288 27.556c-.075.062-.146.127-.219.193l-25.245 22.233c-3.636 3.204-4.897 8.389-3.137 12.902l12.794 32.827c.735 1.886.406 4.002-.823 5.568.004-.019-16.276-26.637-16.276-26.637-2.089-3.435-5.875-5.546-9.895-5.546zm102.498-28.542c-14.353-2.716-27.948-6.119-40.297-10.095l19.097-16.819zm-98.191 121.501h88.217c.829 47.713 9.552 92.533 24.833 127.513-15.226 2.012-30.358 4.738-45.34 8.171-39.604-32.509-65.524-81.093-67.71-135.684zm83.877 147.549c11.942-2.392 23.97-4.328 36.054-5.798 6.696 12.514 14.145 22.873 22.159 30.904-21.011-5.007-40.642-13.604-58.213-25.106zm93.648 29.296c-14.737-3.295-29.177-16.163-41.338-36.784 13.743-1.195 27.537-1.807 41.338-1.802zm0-53.584c-16.314-.003-32.62.822-48.847 2.441-.016-.035-.033-.069-.049-.104-15.616-33.664-24.558-78.021-25.41-125.597h74.306zm0-138.261h-74.3c.379-21.08 2.344-41.62 5.88-61.156.738-4.076-1.968-7.979-6.044-8.716-4.079-.74-7.978 1.968-8.716 6.044-3.694 20.41-5.738 41.85-6.12 63.828h-88.234c.568-14.322 2.768-28.398 6.56-42.07l6.34 10.376c3.02 5.014 10.299 5.925 14.445 1.718l4.683-4.683c5.801-5.801 7.625-14.488 4.646-22.133l-11.928-30.604 20.177-17.77c19.766 7.097 42.299 12.531 67.083 16.191l13.337 16.932c3.647 4.687 10.938 5.139 15.13.896l3.74-3.74c2.812-2.812 4.673-6.321 5.514-10.049 9.163.614 18.466.984 27.807 1.116zm0-98.817c-10.163-.148-20.268-.597-30.191-1.335l-16.393-30.237c13.294-26.649 29.547-42.807 46.584-46.489zm152.861-8.296c23.481 29.717 38.05 66.776 39.665 107.113h-88.217c-.562-32.319-4.745-63.309-12.136-90.815 22.199-3.912 42.702-9.391 60.688-16.298zm-10.456-12.115c-16.333 5.862-34.714 10.545-54.518 13.947-3.064-9.408-6.531-18.319-10.384-26.627-7.889-17.008-17.038-30.695-27.069-40.747 35.784 8.527 67.569 27.466 91.971 53.427zm-127.405-57.616c17.928 4.008 35.415 22.186 48.896 51.248 3.287 7.086 6.273 14.653 8.956 22.617-18.413 2.479-37.851 3.895-57.852 4.18zm0 93.046c21.536-.299 42.473-1.884 62.282-4.664 7.311 26.597 11.457 56.817 12.024 88.463h-74.306zm0 98.798h74.299c-.386 21.505-2.421 42.438-6.091 62.32-.752 4.073 1.941 7.985 6.014 8.737 3.973.733 7.978-1.905 8.737-6.014 3.834-20.773 5.951-42.621 6.34-65.042h88.235c-.568 14.322-2.768 28.398-6.56 42.07l-6.34-10.376c-1.489-2.437-3.97-4.028-6.805-4.365-2.837-.336-5.621.627-7.64 2.647l-4.683 4.683c-5.801 5.801-7.625 14.488-4.646 22.133l11.928 30.604-52.254 46.021-48.344-61.374c-1.791-2.274-4.475-3.676-7.365-3.847-2.895-.167-5.72.905-7.765 2.951l-3.74 3.74c-6.425 6.425-7.888 16.491-3.557 24.479l14.954 27.583c-14.846-1.824-29.811-2.989-44.718-3.448v-123.502zm0 176.878v-38.375c13.496.429 27.043 1.441 40.495 3.024-12.033 20.022-25.979 32.214-40.495 35.351zm35.347-4.162c7.08-7.077 13.717-15.975 19.787-26.554l9.245 17.053c-9.448 3.985-19.138 7.156-29.032 9.501zm189.074-51.788-32.828-12.795c-4.513-1.758-9.699-.499-12.903 3.138l-49.981 56.751c-2.094 2.378-3.131 5.552-2.844 8.708.288 3.156 1.88 6.09 4.369 8.051l59.903 47.186c-1.768 1.653-4.45 2.006-6.588.847l-67.626-36.663c-1.757-.952-3.658-1.414-5.539-1.414-3.233 0-6.406 1.364-8.677 3.942l-14.656 16.642c-6.707 7.615-17.219 10.343-26.78 6.949l-5.002-1.775-1.775-5.002c-3.394-9.562-.666-20.074 6.949-26.78l16.642-14.657c3.983-3.507 5.123-9.444 2.528-14.217l-36.662-67.623c-1.16-2.139-.807-4.821.847-6.589l47.186 59.903c1.961 2.489 4.896 4.082 8.051 4.369 3.161.287 6.331-.749 8.708-2.844l56.751-49.982c3.636-3.204 4.897-8.389 3.137-12.902l-12.794-32.827c-.735-1.886-.406-4.002.823-5.568 3.442 6.18 12.699 20.782 16.276 26.637 1.789 2.928 4.761 4.901 8.153 5.415 3.392.512 6.815-.493 9.392-2.761 3.139-2.764 7.914-2.613 10.871.344 2.958 2.958 3.109 7.733.344 10.872-2.268 2.576-3.274 5.999-2.761 9.392.514 3.393 2.488 6.364 5.415 8.153l26.638 16.276c-1.565 1.229-3.681 1.558-5.567.824z"/></g></svg>